<mxfile host="app.diagrams.net" agent="Mozilla/5.0 (Windows NT 10.0; Win64; x64) AppleWebKit/537.36 (KHTML, like Gecko) Chrome/128.0.0.0 Safari/537.36" version="24.7.7">
  <diagram name="P치gina-1" id="Cu5WFZRTZ1dmdq2uUhK_">
    <mxGraphModel dx="1750" dy="2537" grid="1" gridSize="10" guides="1" tooltips="1" connect="1" arrows="1" fold="1" page="1" pageScale="1" pageWidth="900" pageHeight="1600" math="0" shadow="0">
      <root>
        <mxCell id="0" />
        <mxCell id="1" parent="0" />
        <mxCell id="IuSi_ucjc667y65gIAW3-9" value="" style="rounded=0;whiteSpace=wrap;html=1;fillColor=#dae8fc;strokeColor=#6c8ebf;movable=0;resizable=0;rotatable=0;deletable=0;editable=0;locked=1;connectable=0;" vertex="1" parent="1">
          <mxGeometry y="270" width="890" height="1750" as="geometry" />
        </mxCell>
        <mxCell id="g6yMPmIuiC17lhhZVRHr-3" value="" style="rounded=0;whiteSpace=wrap;html=1;fillColor=#dae8fc;strokeColor=#6c8ebf;" parent="1" vertex="1">
          <mxGeometry width="890" height="270" as="geometry" />
        </mxCell>
        <mxCell id="g6yMPmIuiC17lhhZVRHr-2" value="FOTO" style="ellipse;whiteSpace=wrap;html=1;aspect=fixed;" parent="1" vertex="1">
          <mxGeometry x="370" y="20" width="160" height="160" as="geometry" />
        </mxCell>
        <mxCell id="g6yMPmIuiC17lhhZVRHr-4" value="&lt;h1 style=&quot;margin-top: 0px; font-size: 28px;&quot;&gt;Heading&lt;/h1&gt;&lt;p style=&quot;font-size: 28px;&quot;&gt;Lorem ipsum dolor sit amet, consectetur adipisicing elit, sed do eiusmod tempor incididunt ut labore et dolore magna aliqua.&lt;/p&gt;" style="text;html=1;whiteSpace=wrap;overflow=hidden;rounded=0;fontSize=28;fillColor=#dae8fc;strokeColor=#6c8ebf;" parent="1" vertex="1">
          <mxGeometry x="90" y="400" width="360" height="270" as="geometry" />
        </mxCell>
        <mxCell id="g6yMPmIuiC17lhhZVRHr-5" value="Lucas Costa Dos Santos" style="text;html=1;align=center;verticalAlign=middle;whiteSpace=wrap;rounded=0;fontSize=32;" parent="1" vertex="1">
          <mxGeometry x="270" y="200" width="360" height="50" as="geometry" />
        </mxCell>
        <mxCell id="g6yMPmIuiC17lhhZVRHr-19" value="&amp;amp;Copy Desenvolvido por Lucas Costa" style="rounded=0;whiteSpace=wrap;html=1;fillColor=#dae8fc;strokeColor=#6c8ebf;" parent="1" vertex="1">
          <mxGeometry y="2020" width="890" height="60" as="geometry" />
        </mxCell>
        <mxCell id="g6yMPmIuiC17lhhZVRHr-28" value="Portif칩lio web Lucas Costa" style="html=1;shadow=0;dashed=0;fillColor=#f5f5f5;strokeColor=#666666;fontSize=16;align=right;spacing=15;fontColor=#333333;" parent="1" vertex="1">
          <mxGeometry y="-60" width="890" height="60" as="geometry" />
        </mxCell>
        <mxCell id="g6yMPmIuiC17lhhZVRHr-29" value="" style="swimlane;shape=mxgraph.bootstrap.anchor;strokeColor=none;fillColor=none;fontColor=#0085FC;fontStyle=0;childLayout=stackLayout;horizontal=0;startSize=0;horizontalStack=1;resizeParent=1;resizeParentMax=0;resizeLast=0;collapsible=0;marginBottom=0;whiteSpace=wrap;html=1;resizeWidth=0;" parent="g6yMPmIuiC17lhhZVRHr-28" vertex="1">
          <mxGeometry y="10" width="220" height="40" as="geometry" />
        </mxCell>
        <mxCell id="g6yMPmIuiC17lhhZVRHr-31" value="Home" style="text;strokeColor=none;align=center;verticalAlign=middle;spacingLeft=10;spacingRight=10;points=[[0,0.5],[1,0.5]];portConstraint=eastwest;rotatable=0;whiteSpace=wrap;html=1;fillColor=none;fontColor=#181819;fontSize=14;" parent="g6yMPmIuiC17lhhZVRHr-29" vertex="1">
          <mxGeometry width="60" height="40" as="geometry" />
        </mxCell>
        <mxCell id="g6yMPmIuiC17lhhZVRHr-32" value="Sobre mim" style="text;strokeColor=none;align=center;verticalAlign=middle;spacingLeft=10;spacingRight=10;points=[[0,0.5],[1,0.5]];portConstraint=eastwest;rotatable=0;whiteSpace=wrap;html=1;fillColor=none;fontColor=#7C7C7D;fontSize=14;" parent="g6yMPmIuiC17lhhZVRHr-29" vertex="1">
          <mxGeometry x="60" width="90" height="40" as="geometry" />
        </mxCell>
        <mxCell id="g6yMPmIuiC17lhhZVRHr-33" value="Portif칩lio" style="text;strokeColor=none;align=left;verticalAlign=middle;spacingLeft=5;spacingRight=10;points=[[0,0.5],[1,0.5]];portConstraint=eastwest;rotatable=0;whiteSpace=wrap;html=1;fillColor=none;fontColor=#7C7C7D;fontSize=14;" parent="g6yMPmIuiC17lhhZVRHr-29" vertex="1">
          <mxGeometry x="150" width="70" height="40" as="geometry" />
        </mxCell>
        <mxCell id="g6yMPmIuiC17lhhZVRHr-34" value="" style="swimlane;shape=mxgraph.bootstrap.anchor;strokeColor=none;fillColor=none;fontColor=#0085FC;fontStyle=0;childLayout=stackLayout;horizontal=0;startSize=0;horizontalStack=1;resizeParent=1;resizeParentMax=0;resizeLast=0;collapsible=0;marginBottom=0;whiteSpace=wrap;html=1;resizeWidth=0;" parent="g6yMPmIuiC17lhhZVRHr-28" vertex="1">
          <mxGeometry x="220" y="10" width="160" height="40" as="geometry" />
        </mxCell>
        <mxCell id="g6yMPmIuiC17lhhZVRHr-36" value="Carreira" style="text;strokeColor=none;align=center;verticalAlign=middle;spacingLeft=10;spacingRight=10;points=[[0,0.5],[1,0.5]];portConstraint=eastwest;rotatable=0;whiteSpace=wrap;html=1;fillColor=none;fontColor=#7C7C7D;fontSize=14;" parent="g6yMPmIuiC17lhhZVRHr-34" vertex="1">
          <mxGeometry width="90" height="40" as="geometry" />
        </mxCell>
        <mxCell id="g6yMPmIuiC17lhhZVRHr-37" value="Contato" style="text;strokeColor=none;align=left;verticalAlign=middle;spacingLeft=5;spacingRight=10;points=[[0,0.5],[1,0.5]];portConstraint=eastwest;rotatable=0;whiteSpace=wrap;html=1;fillColor=none;fontColor=#7C7C7D;fontSize=14;" parent="g6yMPmIuiC17lhhZVRHr-34" vertex="1">
          <mxGeometry x="90" width="70" height="40" as="geometry" />
        </mxCell>
        <mxCell id="IuSi_ucjc667y65gIAW3-1" value="&lt;font style=&quot;font-size: 28px;&quot;&gt;Sobre mim&lt;/font&gt;" style="strokeColor=#6c8ebf;fillColor=#dae8fc;strokeWidth=1;html=1;shadow=0;dashed=0;shape=mxgraph.android.rrect;rSize=0;align=left;spacingLeft=10;fontSize=8;movable=1;resizable=1;rotatable=1;deletable=1;editable=1;locked=0;connectable=1;" vertex="1" parent="1">
          <mxGeometry x="90" y="320" width="320" height="62.50000000000001" as="geometry" />
        </mxCell>
        <mxCell id="IuSi_ucjc667y65gIAW3-2" value="&lt;font style=&quot;font-size: 28px;&quot;&gt;Portif칩lio&lt;/font&gt;" style="strokeColor=#6c8ebf;fillColor=#dae8fc;strokeWidth=1;html=1;shadow=0;dashed=0;shape=mxgraph.android.rrect;rSize=0;align=left;spacingLeft=10;fontSize=8;movable=1;resizable=1;rotatable=1;deletable=1;editable=1;locked=0;connectable=1;" vertex="1" parent="1">
          <mxGeometry x="90" y="710" width="320" height="62.50000000000001" as="geometry" />
        </mxCell>
        <mxCell id="IuSi_ucjc667y65gIAW3-5" value="&lt;h1 style=&quot;margin-top: 0px; font-size: 28px;&quot;&gt;Heading&lt;/h1&gt;&lt;p style=&quot;font-size: 28px;&quot;&gt;Lorem ipsum dolor sit amet, consectetur adipisicing elit, sed do eiusmod tempor incididunt ut labore et dolore magna aliqua.&lt;/p&gt;" style="text;html=1;whiteSpace=wrap;overflow=hidden;rounded=0;fontSize=28;fillColor=#dae8fc;strokeColor=#6c8ebf;" vertex="1" parent="1">
          <mxGeometry x="90" y="790" width="360" height="270" as="geometry" />
        </mxCell>
        <mxCell id="IuSi_ucjc667y65gIAW3-6" value="&lt;span style=&quot;font-size: 28px;&quot;&gt;Carreira&lt;/span&gt;" style="strokeColor=#6c8ebf;fillColor=#dae8fc;strokeWidth=1;html=1;shadow=0;dashed=0;shape=mxgraph.android.rrect;rSize=0;align=left;spacingLeft=10;fontSize=8;movable=1;resizable=1;rotatable=1;deletable=1;editable=1;locked=0;connectable=1;" vertex="1" parent="1">
          <mxGeometry x="90" y="1113.75" width="320" height="62.50000000000001" as="geometry" />
        </mxCell>
        <mxCell id="IuSi_ucjc667y65gIAW3-7" value="&lt;h1 style=&quot;margin-top: 0px; font-size: 28px;&quot;&gt;Heading&lt;/h1&gt;&lt;p style=&quot;font-size: 28px;&quot;&gt;Lorem ipsum dolor sit amet, consectetur adipisicing elit, sed do eiusmod tempor incididunt ut labore et dolore magna aliqua.&lt;/p&gt;" style="text;html=1;whiteSpace=wrap;overflow=hidden;rounded=0;fontSize=28;fillColor=#dae8fc;strokeColor=#6c8ebf;" vertex="1" parent="1">
          <mxGeometry x="90" y="1190" width="360" height="270" as="geometry" />
        </mxCell>
        <mxCell id="IuSi_ucjc667y65gIAW3-8" value="&lt;font style=&quot;font-size: 28px;&quot;&gt;Contato&lt;/font&gt;" style="strokeColor=#6c8ebf;fillColor=#dae8fc;strokeWidth=1;html=1;shadow=0;dashed=0;shape=mxgraph.android.rrect;rSize=0;align=left;spacingLeft=10;fontSize=8;movable=1;resizable=1;rotatable=1;deletable=1;editable=1;locked=0;connectable=1;" vertex="1" parent="1">
          <mxGeometry x="90" y="1520" width="320" height="62.50000000000001" as="geometry" />
        </mxCell>
        <mxCell id="IuSi_ucjc667y65gIAW3-10" value="&lt;h1 style=&quot;margin-top: 0px; font-size: 28px;&quot;&gt;Heading&lt;/h1&gt;&lt;p style=&quot;font-size: 28px;&quot;&gt;Lorem ipsum dolor sit amet, consectetur adipisicing elit, sed do eiusmod tempor incididunt ut labore et dolore magna aliqua.&lt;/p&gt;" style="text;html=1;whiteSpace=wrap;overflow=hidden;rounded=0;fontSize=28;fillColor=#dae8fc;strokeColor=#6c8ebf;" vertex="1" parent="1">
          <mxGeometry x="90" y="1600" width="360" height="270" as="geometry" />
        </mxCell>
      </root>
    </mxGraphModel>
  </diagram>
</mxfile>
